<svg
  xmlns="http://www.w3.org/2000/svg"
  width="20"
  height="20"
  viewBox="0 0 20 20"
  fill="none"
  stroke="currentColor"
  stroke-width="1.25"
  stroke-linecap="round"
  stroke-linejoin="round"
>
  <path d="M17.5 8.33683V6.67017C17.4997 6.37789 17.4225 6.09084 17.2763 5.8378C17.13 5.58476 16.9198 5.37463 16.6667 5.2285L10.8333 1.89517C10.58 1.74889 10.2926 1.67188 10 1.67188C9.70744 1.67188 9.42003 1.74889 9.16667 1.89517L3.33333 5.2285C3.08022 5.37463 2.86998 5.58476 2.72372 5.8378C2.57745 6.09084 2.5003 6.37789 2.5 6.67017V13.3368C2.5003 13.6291 2.57745 13.9162 2.72372 14.1692C2.86998 14.4222 3.08022 14.6324 3.33333 14.7785L9.16667 18.1118C9.42003 18.2581 9.70744 18.3351 10 18.3351C10.2926 18.3351 10.58 18.2581 10.8333 18.1118L12.5 17.1618" />
  <path d="M13.7498 7.83125L6.2915 3.53125" />
  <path d="M2.7417 5.83594L10 10.0026L17.2584 5.83594" />
  <path d="M10 18.3333V10" />
  <path d="M15.4168 15.0026C16.5674 15.0026 17.5002 14.0699 17.5002 12.9193C17.5002 11.7687 16.5674 10.8359 15.4168 10.8359C14.2662 10.8359 13.3335 11.7687 13.3335 12.9193C13.3335 14.0699 14.2662 15.0026 15.4168 15.0026Z" />
  <path d="M16.8916 14.3906L18.3333 15.8323" />
</svg>
